/* XPM */
static char * logo_xpm[] = {
"16 16 67 1",
" 	c None",
".	c #FFFAEF",
"+	c #EAEDE8",
"@	c #FFF7E9",
"#	c #FAF7F2",
"$	c #EEEFE7",
"%	c #42A0CD",
"&	c #409ECB",
"*	c #6DAEC9",
"=	c #48A0C9",
"-	c #B4D7E5",
";	c #98C1CD",
">	c #93BECB",
",	c #94BFCB",
"'	c #9AC2CE",
")	c #FFFCEF",
"!	c #58A8CD",
"~	c #53A3C5",
"{	c #EEB271",
"]	c #B0AD94",
"^	c #359CD0",
"/	c #C7D6D3",
"(	c #D5E6EA",
"_	c #92BDCA",
":	c #99C2CE",
"<	c #9BC2CE",
"[	c #F4F0E6",
"}	c #349BCE",
"|	c #B7A989",
"1	c #EC933A",
"2	c #EC9C4A",
"3	c #309DD6",
"4	c #C5CFC5",
"5	c #F6F7F3",
"6	c #96C0CC",
"7	c #FAF3E7",
"8	c #329ACE",
"9	c #9EA797",
"0	c #EF963F",
"a	c #E69F52",
"b	c #319DD5",
"c	c #C5CFC6",
"d	c #FFFCF7",
"e	c #9DC4D0",
"f	c #95BFCC",
"g	c #FFFBF0",
"h	c #84BACD",
"i	c #3B9ECF",
"j	c #B1AC91",
"k	c #69A4B8",
"l	c #399DCE",
"m	c #C7D8D6",
"n	c #94BECB",
"o	c #FEF6EA",
"p	c #9DC4CD",
"q	c #6EB0CA",
"r	c #E0D5BB",
"s	c #2F99CD",
"t	c #C5E0EA",
"u	c #A3C8D3",
"v	c #FFFFF8",
"w	c #FFFDF1",
"x	c #9BCADC",
"y	c #41A0CE",
"z	c #3F9FCE",
"A	c #3E9ECD",
"B	c #44A1CF",
"                ",
"                ",
"                ",
"                ",
"  .+@#          ",
" $%&*=- ;>,  ,>'",
")!~{]^/(_   :<  ",
"[}|12345_,   _6 ",
"7890abcd e>   'f",
"ghijklm   n    >",
" opqrst fnu u>6 ",
"  vwxy          ",
"  zAB           ",
"                ",
"                ",
"                "};
