/* XPM */
static char * logo_xpm[] = {
"16 16 99 2",
"  	c #587AFB",
". 	c #587AFA",
"+ 	c #5779FB",
"@ 	c #5779FA",
"# 	c #5678FA",
"$ 	c #5C7DFA",
"% 	c #587AF9",
"& 	c #577AF9",
"* 	c #5779F9",
"= 	c #6181FA",
"- 	c #F9FBFE",
"; 	c #FFFFFF",
"> 	c #FFFEF6",
", 	c #5E7CED",
"' 	c #D9E1FD",
") 	c #E0E6FD",
"! 	c #6585FA",
"~ 	c #8EA5FB",
"{ 	c #A2B4FC",
"] 	c #5679FA",
"^ 	c #5B7CFB",
"/ 	c #FEFEFF",
"( 	c #FEFEFE",
"_ 	c #FEFEFD",
": 	c #F7F9FE",
"< 	c #788FE0",
"[ 	c #5779FC",
"} 	c #5B7DFB",
"| 	c #5577FA",
"1 	c #CFD0D0",
"2 	c #5476F7",
"3 	c #5175FA",
"4 	c #586CBA",
"5 	c #8690B7",
"6 	c #9B9FAD",
"7 	c #6370A5",
"8 	c #FFFEFC",
"9 	c #F8F7F0",
"0 	c #5574E7",
"a 	c #FDFDFB",
"b 	c #5777EB",
"c 	c #6081FD",
"d 	c #FFFFFE",
"e 	c #9BA0B5",
"f 	c #567BFF",
"g 	c #E3E7F6",
"h 	c #5974D7",
"i 	c #5174FA",
"j 	c #5676EA",
"k 	c #5B7CFA",
"l 	c #A6AAB9",
"m 	c #C4D0FD",
"n 	c #5C75D1",
"o 	c #5476FA",
"p 	c #5A7CFA",
"q 	c #ACAFBD",
"r 	c #577BFF",
"s 	c #C1CDFD",
"t 	c #5D74C9",
"u 	c #5778FA",
"v 	c #A6AAB8",
"w 	c #C8D2FD",
"x 	c #5B73CD",
"y 	c #5A7BFA",
"z 	c #FFFFFD",
"A 	c #5777EA",
"B 	c #5D7DFA",
"C 	c #9BA0B2",
"D 	c #567AFF",
"E 	c #D5DDFD",
"F 	c #5872D0",
"G 	c #5E7FFA",
"H 	c #F9F5E6",
"I 	c #E9E8E5",
"J 	c #EEEEE9",
"K 	c #5776E8",
"L 	c #6080FB",
"M 	c #FFFFF9",
"N 	c #EDEBE8",
"O 	c #7F8497",
"P 	c #5679FE",
"Q 	c #C1C5D3",
"R 	c #7A7D88",
"S 	c #555A6D",
"T 	c #5370DA",
"U 	c #5879FA",
"V 	c #5676EF",
"W 	c #5576EF",
"X 	c #5575EF",
"Y 	c #5678F8",
"Z 	c #5876E8",
"` 	c #5677F4",
" .	c #5678F7",
"..	c #5778F9",
"+.	c #577AFC",
"@.	c #597AFA",
"#.	c #5C7DF9",
"$.	c #5A7BF9",
"%.	c #5B7CF9",
"                                ",
". + @     . + + + + .   +   .   ",
"+ . # # $ @ # # @ % # # & * + @ ",
"  = - ; > , ' ) ! ~ ; ; { ]   ^ ",
"  $ ; / ( _ / ( : ; ( ; ; < [ } ",
"  | ; ; ( ; ; ( ( ; ; ( ( 1 2 ] ",
"  3 ; ; ; 4 5 ; ; 6 7 8 ; 9 0 # ",
"  3 ; ; a b c d ; e f g ; ; h * ",
". i ; ; a j k d ; l f m ; ; n @ ",
"  o ; ; a j p d ; q r s ; ; t   ",
"  u ; ; a j k d ; v f w ; ; x   ",
"  y ; ; z A B ; ; C D E ; ; F @ ",
"  G H I J K L M N O P Q R S T @ ",
"  U V W X Y U Z W ` U  ...+.  @ ",
"+ @.p p @.#.@ @ $.%.+ . + + @   ",
"  + + + @ +     + +             "};
